<?xml version="1.0" standalone="no"?>
<!DOCTYPE svg PUBLIC "-//W3C//DTD SVG 20010904//EN"
 "http://www.w3.org/TR/2001/REC-SVG-20010904/DTD/svg10.dtd">
<svg version="1.0" xmlns="http://www.w3.org/2000/svg"
 width="512.000000pt" height="512.000000pt" viewBox="0 0 512.000000 512.000000"
 preserveAspectRatio="xMidYMid meet">
<metadata>
Created by potrace 1.11, written by Peter Selinger 2001-2013
</metadata>
<g transform="translate(0.000000,512.000000) scale(0.100000,-0.100000)"
fill="#000000" stroke="none">
<path d="M600 4427 l0 -253 -156 -28 c-86 -15 -221 -44 -300 -63 l-144 -35 0
-1804 c0 -992 2 -1804 5 -1804 3 0 76 18 163 40 589 148 1202 185 1818 110
177 -22 387 -59 504 -89 l75 -19 106 24 c147 33 374 69 569 91 203 22 825 26
1010 5 270 -30 475 -66 722 -128 75 -19 139 -34 142 -34 4 0 6 812 6 1804 0
1710 -1 1805 -17 1810 -57 16 -362 80 -484 100 -296 50 -447 61 -844 61 -451
-1 -675 -22 -1060 -100 l-160 -32 -85 57 c-379 254 -780 415 -1224 491 -135
23 -429 49 -558 49 l-88 0 0 -253z m3383 -1562 c356 -235 647 -431 647 -435 0
-5 -28 -26 -62 -48 -35 -22 -332 -218 -660 -435 l-598 -396 0 881 c0 703 3
879 13 871 6 -5 303 -202 660 -438z"/>
</g>
</svg>
